<svg id="visual" viewBox="0 0 900 600" width="900" height="600" xmlns="http://www.w3.org/2000/svg" xmlns:xlink="http://www.w3.org/1999/xlink" version="1.1"><rect x="0" y="0" width="900" height="600" fill="#00ffcc"></rect><defs><linearGradient id="grad1_0" x1="33.3%" y1="0%" x2="100%" y2="100%"><stop offset="20%" stop-color="#00ffcc" stop-opacity="1"></stop><stop offset="80%" stop-color="#00ffcc" stop-opacity="1"></stop></linearGradient></defs><defs><linearGradient id="grad2_0" x1="0%" y1="0%" x2="66.7%" y2="100%"><stop offset="20%" stop-color="#00ffcc" stop-opacity="1"></stop><stop offset="80%" stop-color="#00ffcc" stop-opacity="1"></stop></linearGradient></defs><g transform="translate(900, 0)"><path d="M0 405.6C-31.8 391.3 -63.6 376.9 -99.1 369.9C-134.6 363 -173.9 363.3 -198 342.9C-222.1 322.6 -231.1 281.5 -257.4 257.4C-283.7 233.3 -327.3 226.2 -351.3 202.8C-375.3 179.4 -379.6 139.8 -385.4 103.3C-391.2 66.8 -398.4 33.4 -405.6 0L0 0Z" fill="#6448ff"></path></g><g transform="translate(0, 600)"><path d="M0 -405.6C31.6 -393.2 63.3 -380.9 100.9 -376.7C138.6 -372.6 182.3 -376.6 202.8 -351.3C223.4 -325.9 220.8 -271.2 244 -244C267.1 -216.7 316 -217 341.2 -197C366.4 -177 368 -136.6 374.8 -100.4C381.6 -64.2 393.6 -32.1 405.6 0L0 0Z" fill="#6448ff"></path></g></svg>