<svg id="visual" viewBox="0 0 900 600" width="900" height="600" xmlns="http://www.w3.org/2000/svg" xmlns:xlink="http://www.w3.org/1999/xlink" version="1.1"><rect x="0" y="0" width="900" height="600" fill="#2ca88f"></rect><defs><linearGradient id="grad1_0" x1="33.3%" y1="100%" x2="100%" y2="0%"><stop offset="20%" stop-color="#2ca88f" stop-opacity="1"></stop><stop offset="80%" stop-color="#2ca88f" stop-opacity="1"></stop></linearGradient></defs><defs><linearGradient id="grad2_0" x1="0%" y1="100%" x2="66.7%" y2="0%"><stop offset="20%" stop-color="#2ca88f" stop-opacity="1"></stop><stop offset="80%" stop-color="#2ca88f" stop-opacity="1"></stop></linearGradient></defs><g transform="translate(900, 600)"><path d="M-405.6 0C-391.3 -31.8 -376.9 -63.6 -369.9 -99.1C-363 -134.6 -363.3 -173.9 -342.9 -198C-322.6 -222.1 -281.5 -231.1 -257.4 -257.4C-233.3 -283.7 -226.2 -327.3 -202.8 -351.3C-179.4 -375.3 -139.8 -379.6 -103.3 -385.4C-66.8 -391.2 -33.4 -398.4 0 -405.6L0 0Z" fill="#6448FF"></path></g><g transform="translate(0, 0)"><path d="M405.6 0C393.2 31.6 380.9 63.3 376.7 100.9C372.6 138.6 376.6 182.3 351.3 202.8C325.9 223.4 271.2 220.8 244 244C216.7 267.1 217 316 197 341.2C177 366.4 136.6 368 100.4 374.8C64.2 381.6 32.1 393.6 0 405.6L0 0Z" fill="#6448FF"></path></g></svg>